<?xml version="1.0" encoding="UTF-8"?>
<svg width="25px" height="23px" viewBox="0 0 25 23" version="1.1" xmlns="http://www.w3.org/2000/svg" xmlns:xlink="http://www.w3.org/1999/xlink">
    <!-- Generator: Sketch 57.1 (83088) - https://sketch.com -->
    <title>Line</title>
    <desc>Created with Sketch.</desc>
    <g id="Line" stroke="none" stroke-width="1" fill="none" fill-rule="evenodd">
        <path d="M1.5,3 L23.5,3 C24.3284271,3 25,2.32842712 25,1.5 C25,0.671572875 24.3284271,0 23.5,0 L1.5,0 C0.671572875,0 0,0.671572875 0,1.5 C0,2.32842712 0.671572875,3 1.5,3 Z" fill="#FF5200" fill-rule="nonzero"></path>
        <path d="M1.5,13 L23.5,13 C24.3284271,13 25,12.3284271 25,11.5 C25,10.6715729 24.3284271,10 23.5,10 L1.5,10 C0.671572875,10 0,10.6715729 0,11.5 C0,12.3284271 0.671572875,13 1.5,13 Z" id="Line-Copy" fill="#FF5200" fill-rule="nonzero"></path>
        <path d="M1.5,23 L23.5,23 C24.3284271,23 25,22.3284271 25,21.5 C25,20.6715729 24.3284271,20 23.5,20 L1.5,20 C0.671572875,20 0,20.6715729 0,21.5 C0,22.3284271 0.671572875,23 1.5,23 Z" id="Line-Copy-2" fill="#FF5200" fill-rule="nonzero"></path>
    </g>
</svg>