<?xml version="1.0" encoding="UTF-8"?>
<svg width="21px" height="29px" viewBox="0 0 21 29" version="1.1" xmlns="http://www.w3.org/2000/svg" xmlns:xlink="http://www.w3.org/1999/xlink">
    <!-- Generator: Sketch 57.1 (83088) - https://sketch.com -->
    <title>Shape</title>
    <desc>Created with Sketch.</desc>
    <g id="Page-1" stroke="none" stroke-width="1" fill="none" fill-rule="evenodd">
        <g id="Desktop-HD-Copy-4" transform="translate(-996.000000, -812.000000)" fill="#D8D8D8" fill-rule="nonzero">
            <g id="Group" transform="translate(346.000000, 795.000000)">
                <path d="M660.5,35 C662.99,35 664.985,32.99 664.985,30.5 L665,21.5 C665,19.01 662.99,17 660.5,17 C658.01,17 656,19.01 656,21.5 L656,30.5 C656,32.99 658.01,35 660.5,35 Z M668.45,31 C668.45,35.5 664.64,38.65 660.5,38.65 C656.36,38.65 652.55,35.5 652.55,31 L650,31 C650,36.13 654.08,40.345 659,41.08 L659,46 L662,46 L662,41.08 C666.92,40.36 671,36.13 671,31 L668.45,31 Z" id="Shape"></path>
            </g>
        </g>
    </g>
</svg>